<svg id="SvgjsSvg1012" width="288" height="288" xmlns="http://www.w3.org/2000/svg" version="1.1" xmlns:xlink="http://www.w3.org/1999/xlink" xmlns:svgjs="http://svgjs.com/svgjs"><defs id="SvgjsDefs1013"></defs><g id="SvgjsG1014"><svg xmlns="http://www.w3.org/2000/svg" data-name="Chevron up circle" viewBox="0 0 24 24" width="288" height="288"><path fill="none" d="M0 0h24v24H0Z" data-name="Path 3680"></path><path fill="#c70101" d="M5.212 18.788A9.6 9.6 0 1 0 2.4 12a9.6 9.6 0 0 0 2.812 6.788Zm12.3-1.272A7.809 7.809 0 1 1 19.8 12a7.809 7.809 0 0 1-2.285 5.516Zm-9.121-3.289a1.2 1.2 0 0 0 1.7 0L12 12.318l1.909 1.909a1.202 1.202 0 0 0 1.7-1.7l-2.761-2.755a1.2 1.2 0 0 0-1.7 0L8.39 12.53a1.2 1.2 0 0 0 0 1.7Z" data-name="Path 3564" class="color525863 svgShape"></path></svg></g></svg>